<svg width="140" height="140" viewBox="0 0 140 140" fill="none" xmlns="http://www.w3.org/2000/svg">
<g filter="url(#filter0_d_32_9391)">
<path d="M40.346 66V60.526L45.682 56.156C48.258 54.0707 50.4353 52.3073 52.214 50.866C54.0233 49.4247 55.4033 48.106 56.354 46.91C57.3047 45.6833 57.78 44.38 57.78 43C57.78 41.988 57.5347 41.1447 57.044 40.47C56.5533 39.7647 55.94 39.2433 55.204 38.906C54.468 38.5687 53.7013 38.4 52.904 38.4C51.7693 38.4 50.8187 38.6607 50.052 39.182C49.316 39.7033 48.7487 40.378 48.35 41.206C47.982 42.034 47.798 42.8927 47.798 43.782H40.162C40.162 41.5127 40.6987 39.458 41.772 37.618C42.8453 35.7473 44.348 34.26 46.28 33.156C48.2427 32.052 50.5273 31.5 53.134 31.5C55.4647 31.5 57.5807 31.96 59.482 32.88C61.3833 33.7693 62.9013 35.042 64.036 36.698C65.1707 38.3233 65.738 40.24 65.738 42.448C65.738 44.5333 65.2167 46.4347 64.174 48.152C63.162 49.8693 61.7053 51.5407 59.804 53.166C57.9333 54.7607 55.7253 56.4933 53.18 58.364L52.26 59.1H66.152V66H40.346ZM85.0555 66.46C82.7248 66.46 80.6548 66 78.8455 65.08C77.0362 64.16 75.5028 62.9027 74.2455 61.308C72.9882 59.7133 72.0222 57.858 71.3475 55.742C70.7035 53.626 70.3815 51.372 70.3815 48.98C70.3815 46.5573 70.7035 44.3033 71.3475 42.218C72.0222 40.102 72.9882 38.2467 74.2455 36.652C75.5028 35.0267 77.0362 33.7693 78.8455 32.88C80.6548 31.96 82.7248 31.5 85.0555 31.5C87.3862 31.5 89.4562 31.96 91.2655 32.88C93.0748 33.7693 94.6082 35.0267 95.8655 36.652C97.1228 38.2467 98.0735 40.102 98.7175 42.218C99.3922 44.3033 99.7295 46.5573 99.7295 48.98C99.7295 51.372 99.3922 53.626 98.7175 55.742C98.0735 57.858 97.1228 59.7133 95.8655 61.308C94.6082 62.9027 93.0748 64.16 91.2655 65.08C89.4562 66 87.3862 66.46 85.0555 66.46ZM85.0555 59.422C86.9262 59.422 88.4595 58.5633 89.6555 56.846C90.8822 55.098 91.4955 52.476 91.4955 48.98C91.4955 45.484 90.8822 42.8773 89.6555 41.16C88.4595 39.412 86.9262 38.538 85.0555 38.538C83.1848 38.538 81.6362 39.412 80.4095 41.16C79.2135 42.8773 78.6155 45.484 78.6155 48.98C78.6155 52.4453 79.2135 55.052 80.4095 56.8C81.6362 58.548 83.1848 59.422 85.0555 59.422ZM40.346 107V101.526L45.682 97.156C48.258 95.0707 50.4353 93.3073 52.214 91.866C54.0233 90.4247 55.4033 89.106 56.354 87.91C57.3047 86.6833 57.78 85.38 57.78 84C57.78 82.988 57.5347 82.1447 57.044 81.47C56.5533 80.7647 55.94 80.2433 55.204 79.906C54.468 79.5687 53.7013 79.4 52.904 79.4C51.7693 79.4 50.8187 79.6607 50.052 80.182C49.316 80.7033 48.7487 81.378 48.35 82.206C47.982 83.034 47.798 83.8927 47.798 84.782H40.162C40.162 82.5127 40.6987 80.458 41.772 78.618C42.8453 76.7473 44.348 75.26 46.28 74.156C48.2427 73.052 50.5273 72.5 53.134 72.5C55.4647 72.5 57.5807 72.96 59.482 73.88C61.3833 74.7693 62.9013 76.042 64.036 77.698C65.1707 79.3233 65.738 81.24 65.738 83.448C65.738 85.5333 65.2167 87.4347 64.174 89.152C63.162 90.8693 61.7053 92.5407 59.804 94.166C57.9333 95.7607 55.7253 97.4933 53.18 99.364L52.26 100.1H66.152V107H40.346ZM84.6875 107.46C82.1728 107.46 80.0875 107.138 78.4315 106.494C76.8062 105.85 75.5182 105.037 74.5675 104.056C73.6168 103.044 72.9115 102.017 72.4515 100.974C71.9915 99.9313 71.7002 98.996 71.5775 98.168C71.4548 97.34 71.3935 96.788 71.3935 96.512H78.9375C78.9375 96.7267 78.9988 97.0793 79.1215 97.57C79.2442 98.0607 79.4895 98.5667 79.8575 99.088C80.2255 99.5787 80.7775 100.008 81.5135 100.376C82.2802 100.744 83.2922 100.928 84.5495 100.928C86.1442 100.928 87.4168 100.545 88.3675 99.778C89.3488 99.0113 89.8395 98.03 89.8395 96.834C89.8395 95.73 89.4102 94.7793 88.5515 93.982C87.7235 93.1847 86.4815 92.786 84.8255 92.786H80.2255V86.668H84.9175C86.3282 86.668 87.4168 86.3 88.1835 85.564C88.9808 84.7973 89.3795 83.908 89.3795 82.896C89.3795 81.792 88.9348 80.872 88.0455 80.136C87.1562 79.3693 85.9908 78.986 84.5495 78.986C83.4455 78.986 82.5408 79.1853 81.8355 79.584C81.1608 79.9827 80.6395 80.458 80.2715 81.01C79.9342 81.562 79.7042 82.0987 79.5815 82.62C79.4588 83.1107 79.3975 83.4633 79.3975 83.678H72.0375C72.0375 83.402 72.0988 82.85 72.2215 82.022C72.3748 81.1633 72.6662 80.1973 73.0955 79.124C73.5248 78.0507 74.1995 77.008 75.1195 75.996C76.0395 74.984 77.2662 74.156 78.7995 73.512C80.3328 72.8373 82.2802 72.5 84.6415 72.5C86.2668 72.5 87.8155 72.7147 89.2875 73.144C90.7902 73.5733 92.1395 74.202 93.3355 75.03C94.5315 75.858 95.4668 76.87 96.1415 78.066C96.8468 79.262 97.1995 80.6113 97.1995 82.114C97.1995 83.5553 96.9082 84.782 96.3255 85.794C95.7428 86.806 95.0222 87.634 94.1635 88.278C93.3355 88.8913 92.5535 89.3053 91.8175 89.52V89.842C92.8295 90.21 93.7955 90.716 94.7155 91.36C95.6355 92.004 96.3715 92.8167 96.9235 93.798C97.5062 94.7793 97.7975 95.96 97.7975 97.34C97.7975 99.4867 97.1842 101.311 95.9575 102.814C94.7615 104.317 93.1668 105.467 91.1735 106.264C89.1802 107.061 87.0182 107.46 84.6875 107.46Z" fill="#ED5497"/>
</g>
<defs>
<filter id="filter0_d_32_9391" x="40.162" y="31.5" width="63.5675" height="79.96" filterUnits="userSpaceOnUse" color-interpolation-filters="sRGB">
<feFlood flood-opacity="0" result="BackgroundImageFix"/>
<feColorMatrix in="SourceAlpha" type="matrix" values="0 0 0 0 0 0 0 0 0 0 0 0 0 0 0 0 0 0 127 0" result="hardAlpha"/>
<feOffset dx="4" dy="4"/>
<feComposite in2="hardAlpha" operator="out"/>
<feColorMatrix type="matrix" values="0 0 0 0 0.960784 0 0 0 0 0.968627 0 0 0 0 0.984314 0 0 0 1 0"/>
<feBlend mode="normal" in2="BackgroundImageFix" result="effect1_dropShadow_32_9391"/>
<feBlend mode="normal" in="SourceGraphic" in2="effect1_dropShadow_32_9391" result="shape"/>
</filter>
</defs>
</svg>
