<svg width="400" height="400" viewBox="0 0 400 400" fill="none" xmlns="http://www.w3.org/2000/svg">
<path fill-rule="evenodd" clip-rule="evenodd" d="M268.489 62.8729C260.049 71.2759 254.718 80.2206 250.311 93.3759C247.9 100.573 246.287 107.375 245.108 115.32C244.074 122.278 243.931 144.308 244.875 151.171C247.324 168.98 250.366 181.014 256.158 195.811C258.217 201.07 310.143 319.117 312.188 323.188L312.967 324.739L315.715 322.451C334.597 306.73 346.276 281.281 347.296 253.636C347.897 237.337 344.446 218.335 337.843 201.594C335.408 195.418 274.744 58.698 274.137 58.0157C273.938 57.7927 271.397 59.9784 268.489 62.8729ZM127.158 248.431C87.2753 328.64 54.0495 395.461 53.3223 396.924L52 399.584H88.3272H124.654L178.386 292.212C227.627 193.818 232.166 184.932 232.682 185.931C232.991 186.531 254.276 234.901 279.983 293.419C305.689 351.937 326.78 399.888 326.851 399.977C326.923 400.066 327.745 399.887 328.677 399.581C329.892 399.181 330.314 398.807 330.165 398.262C330.051 397.844 308.416 348.479 282.088 288.561C255.76 228.644 229.199 168.171 223.063 154.178C205.791 114.788 200.339 102.599 199.991 102.599C199.816 102.599 167.041 168.224 127.158 248.431ZM221.994 264.707C209.913 267.103 200.546 274.105 195.128 284.789C190.15 294.607 190.798 310.209 196.589 319.959C203.169 331.034 217.641 339.66 235.5 343.153C245.069 345.024 259.923 344.819 269.765 342.681C274.55 341.641 283.448 338.961 283.445 338.559C283.444 338.411 282.14 337.618 280.547 336.795C275 333.933 271.188 329.749 267.541 322.522C264.692 316.874 264.252 314.462 264.172 304.058C264.089 293.311 263.648 290.965 260.519 284.629C255.849 275.173 246.957 267.732 237.3 265.199C233.349 264.162 225.942 263.925 221.994 264.707Z" fill="#F7EFD4"/>
</svg>
