<svg width="48" height="48" viewBox="0 0 48 48" fill="none" xmlns="http://www.w3.org/2000/svg">
<path d="M44.8791 15.5981C43.9003 13.2422 41.9166 10.6987 40.3594 9.89531C41.6269 12.3806 42.36 14.8734 42.6403 16.7334C42.6403 16.7334 42.6403 16.7466 42.645 16.7709C40.0978 10.4203 35.7778 7.85906 32.25 2.28375C32.0709 2.0025 31.8928 1.72125 31.7184 1.42031C31.62 1.25062 31.5403 1.09687 31.4709 0.951558C31.3247 0.669655 31.2118 0.371719 31.1344 0.0637458C31.135 0.0491209 31.1301 0.0347895 31.1208 0.0235303C31.1114 0.0122712 31.0982 0.00488652 31.0837 0.00280827C31.0699 -0.000936088 31.0554 -0.000936088 31.0416 0.00280827C31.0378 0.00450602 31.0344 0.00671477 31.0312 0.00937077C31.0256 0.00937077 31.02 0.0159333 31.0144 0.0178083L31.0237 0.00562077C25.3641 3.32062 23.4441 9.45281 23.2678 12.5212C21.0062 12.6759 18.8437 13.5087 17.0625 14.9109C16.8763 14.7535 16.6817 14.6064 16.4794 14.4703C15.9661 12.6734 15.9444 10.7716 16.4166 8.96344C14.1019 10.0181 12.3019 11.6822 10.9931 13.155H10.9828C10.0894 12.0234 10.1522 8.29125 10.2028 7.51218C10.1925 7.46343 9.53719 7.8525 9.45281 7.91156C8.66444 8.47398 7.92749 9.1052 7.25062 9.79781C6.48038 10.5787 5.77669 11.4226 5.14687 12.3206C3.69788 14.3741 2.67026 16.6945 2.12344 19.1475C2.11312 19.1963 2.10375 19.2469 2.09344 19.2966C2.05125 19.4944 1.89844 20.4872 1.87125 20.7028V20.7525C1.67204 21.7783 1.54796 22.8173 1.5 23.8613V23.9766C1.5 36.4191 11.5875 46.5066 24.03 46.5066C35.1741 46.5066 44.4262 38.4159 46.2384 27.7884C46.2759 27.5006 46.3069 27.21 46.3406 26.9194C46.7887 23.055 46.2909 18.9938 44.8791 15.5981ZM18.9103 33.2344C19.0153 33.2841 19.1147 33.3394 19.2225 33.3881L19.2375 33.3975C19.1297 33.345 19.02 33.2906 18.9112 33.2344H18.9103ZM42.6469 16.7812V16.7597V16.7841V16.7812Z" fill="url(#paint0_linear_85_4002)"/>
<path d="M44.8791 15.5981C43.9003 13.2422 41.9166 10.6987 40.3594 9.89531C41.6269 12.3806 42.36 14.8734 42.6403 16.7334V16.7794C44.7666 22.5431 43.6078 28.4044 41.9391 31.9856C39.3572 37.5263 33.1069 43.2056 23.3222 42.9291C12.7594 42.6291 3.44718 34.7813 1.70812 24.5109C1.39124 22.89 1.70812 22.0678 1.8675 20.7525C1.67343 21.7659 1.59937 22.0594 1.50281 23.8613V23.9766C1.50281 36.4191 11.5903 46.5066 24.0328 46.5066C35.1769 46.5066 44.4291 38.4159 46.2412 27.7884C46.2787 27.5006 46.3097 27.21 46.3434 26.9194C46.7887 23.055 46.2909 18.9938 44.8791 15.5981V15.5981Z" fill="url(#paint1_radial_85_4002)"/>
<path d="M44.8791 15.5981C43.9003 13.2422 41.9166 10.6987 40.3594 9.89531C41.6269 12.3806 42.36 14.8734 42.6403 16.7334V16.7794C44.7666 22.5431 43.6078 28.4044 41.9391 31.9856C39.3572 37.5263 33.1069 43.2056 23.3222 42.9291C12.7594 42.6291 3.44718 34.7813 1.70812 24.5109C1.39124 22.89 1.70812 22.0678 1.8675 20.7525C1.67343 21.7659 1.59937 22.0594 1.50281 23.8613V23.9766C1.50281 36.4191 11.5903 46.5066 24.0328 46.5066C35.1769 46.5066 44.4291 38.4159 46.2412 27.7884C46.2787 27.5006 46.3097 27.21 46.3434 26.9194C46.7887 23.055 46.2909 18.9938 44.8791 15.5981V15.5981Z" fill="url(#paint2_radial_85_4002)"/>
<path d="M33.9301 18.2456C33.9798 18.2803 34.0238 18.315 34.0707 18.3497C33.5053 17.3457 32.8008 16.4266 31.9782 15.6197C24.9751 8.61657 30.1426 0.434068 31.0135 0.017818L31.0229 0.00563049C25.3632 3.32063 23.4432 9.45282 23.267 12.5213C23.5295 12.5034 23.791 12.4809 24.0582 12.4809C28.2817 12.4809 31.9604 14.8041 33.9301 18.2456Z" fill="url(#paint3_radial_85_4002)"/>
<path d="M24.0722 19.6444C24.0356 20.2069 22.0556 22.1381 21.3628 22.1381C14.9559 22.1381 13.9163 26.0137 13.9163 26.0137C14.1975 29.2781 16.4719 31.9659 19.2234 33.3881C19.3491 33.4528 19.4756 33.5109 19.5984 33.5691C19.8188 33.6628 20.04 33.7566 20.2603 33.84C21.2039 34.1728 22.1921 34.3624 23.1919 34.4025C34.4213 34.9294 36.5981 20.9756 28.4934 16.9237C30.5681 16.5628 32.7225 17.3981 33.9253 18.2428C31.9566 14.8012 28.2769 12.4781 24.0534 12.4781C23.7863 12.4781 23.5247 12.5006 23.2622 12.5184C21.0022 12.675 18.8418 13.5087 17.0625 14.9109C17.4066 15.2025 17.7947 15.5906 18.6113 16.395C20.1431 17.9062 24.0638 19.4616 24.0722 19.6444V19.6444Z" fill="url(#paint4_radial_85_4002)"/>
<path d="M24.0722 19.6444C24.0356 20.2069 22.0556 22.1381 21.3628 22.1381C14.9559 22.1381 13.9163 26.0137 13.9163 26.0137C14.1975 29.2781 16.4719 31.9659 19.2234 33.3881C19.3491 33.4528 19.4756 33.5109 19.5984 33.5691C19.8188 33.6628 20.04 33.7566 20.2603 33.84C21.2039 34.1728 22.1921 34.3624 23.1919 34.4025C34.4213 34.9294 36.5981 20.9756 28.4934 16.9237C30.5681 16.5628 32.7225 17.3981 33.9253 18.2428C31.9566 14.8012 28.2769 12.4781 24.0534 12.4781C23.7863 12.4781 23.5247 12.5006 23.2622 12.5184C21.0022 12.675 18.8418 13.5087 17.0625 14.9109C17.4066 15.2025 17.7947 15.5906 18.6113 16.395C20.1431 17.9062 24.0638 19.4616 24.0722 19.6444V19.6444Z" fill="url(#paint5_radial_85_4002)"/>
<path d="M16.0153 14.1619C16.1981 14.28 16.3481 14.3794 16.4841 14.4703C15.9707 12.6734 15.9491 10.7716 16.4212 8.96344C14.1066 10.0181 12.3066 11.6822 10.9978 13.155C11.1037 13.1522 14.3719 13.0931 16.0153 14.1619V14.1619Z" fill="url(#paint6_radial_85_4002)"/>
<path d="M1.70809 24.5109C3.44715 34.7812 12.7593 42.6291 23.3296 42.9291C33.1143 43.2056 39.3609 37.5262 41.9465 31.9856C43.6153 28.4034 44.774 22.5431 42.6478 16.7794V16.7362C42.6478 16.7419 42.6478 16.7494 42.6525 16.7737C43.4512 21.9928 40.7971 27.0487 36.6478 30.4678C36.6435 30.4774 36.6394 30.4871 36.6356 30.4969C28.5496 37.0809 20.8125 34.4691 19.2459 33.4031C19.1371 33.3506 19.0275 33.2962 18.9187 33.24C14.204 30.99 12.2568 26.6916 12.674 23.0081C8.69434 23.0081 7.33684 19.65 7.33684 19.65C7.33684 19.65 10.9106 17.1019 15.6206 19.3181C19.9828 21.3712 24.0796 19.6509 24.0796 19.65C24.0712 19.4672 20.1506 17.9072 18.6215 16.4006C17.805 15.5962 17.4168 15.2081 17.0728 14.9166C16.8866 14.7591 16.6919 14.612 16.4896 14.4759C16.3556 14.3822 16.2084 14.2884 16.0209 14.1675C14.3775 13.0987 11.1093 13.1578 11.0015 13.1606H10.9912C10.0978 12.0291 10.1606 8.29687 10.2112 7.51781C10.2009 7.46906 9.54559 7.85812 9.46121 7.91718C8.67284 8.47961 7.93589 9.11083 7.25902 9.80343C6.48878 10.5844 5.78508 11.4282 5.15527 12.3262C3.70627 14.3797 2.67866 16.7001 2.13184 19.1531C2.11402 19.1962 1.31246 22.6959 1.70809 24.5109V24.5109Z" fill="url(#paint7_radial_85_4002)"/>
<path d="M31.9781 15.6197C32.8007 16.4266 33.5051 17.3457 34.0706 18.3497C34.1877 18.4377 34.3004 18.5316 34.4081 18.6309C39.5156 23.3334 36.8437 29.9906 36.6403 30.4688C40.7896 27.0497 43.4437 21.9938 42.6449 16.7747C40.0978 10.4203 35.7778 7.85906 32.2499 2.28375C32.0709 2.0025 31.8928 1.72125 31.7184 1.42031C31.6199 1.25062 31.5403 1.09687 31.4709 0.951559C31.3247 0.669655 31.2117 0.37172 31.1343 0.0637458C31.1349 0.0491209 31.1301 0.0347895 31.1207 0.0235303C31.1114 0.0122712 31.0982 0.00488652 31.0837 0.00280827C31.0699 -0.000936089 31.0553 -0.000936089 31.0415 0.00280827C31.0378 0.00450602 31.0343 0.00671477 31.0312 0.00937077C31.0256 0.00937077 31.0199 0.0159333 31.0143 0.0178083C30.1424 0.434058 24.9749 8.61656 31.9781 15.6197V15.6197Z" fill="url(#paint8_radial_85_4002)"/>
<path d="M34.4062 18.6263C34.2985 18.5269 34.1859 18.433 34.0687 18.345C34.0227 18.3103 33.9749 18.2756 33.9281 18.2409C32.7252 17.3972 30.5709 16.5609 28.4962 16.9219C36.5999 20.9737 34.424 34.9275 23.1946 34.4006C22.1948 34.3605 21.2067 34.1709 20.2631 33.8381C20.0428 33.7556 19.8215 33.6647 19.6012 33.5672C19.4737 33.509 19.3471 33.4509 19.2262 33.3862L19.2412 33.3956C20.8078 34.4644 28.5449 37.0762 36.6309 30.4894C36.6309 30.4894 36.6356 30.4772 36.6431 30.4603C36.8437 29.9906 39.5156 23.3334 34.4062 18.6263Z" fill="url(#paint9_radial_85_4002)"/>
<path d="M13.9162 26.0137C13.9162 26.0137 14.9559 22.1381 21.3628 22.1381C22.0556 22.1381 24.0356 20.205 24.0722 19.6444C24.1087 19.0837 19.9753 21.3656 15.6131 19.3125C10.9031 17.0962 7.32935 19.6444 7.32935 19.6444C7.32935 19.6444 8.68685 23.0025 12.6665 23.0025C12.2493 26.6859 14.1965 30.9806 18.9112 33.2344C19.0162 33.2841 19.1156 33.3394 19.2234 33.3881C16.4718 31.9687 14.2003 29.2781 13.9162 26.0137Z" fill="url(#paint10_radial_85_4002)"/>
<path d="M44.8791 15.5981C43.9003 13.2422 41.9166 10.6987 40.3594 9.89531C41.6269 12.3806 42.36 14.8734 42.6403 16.7334C42.6403 16.7334 42.6403 16.7466 42.645 16.7709C40.0978 10.4203 35.7778 7.85906 32.25 2.28375C32.0709 2.0025 31.8928 1.72125 31.7184 1.42031C31.62 1.25062 31.5403 1.09687 31.4709 0.951558C31.3247 0.669655 31.2118 0.371719 31.1344 0.0637458C31.135 0.0491209 31.1301 0.0347895 31.1208 0.0235303C31.1114 0.0122712 31.0982 0.00488652 31.0837 0.00280827C31.0699 -0.000936088 31.0554 -0.000936088 31.0416 0.00280827C31.0378 0.00450602 31.0344 0.00671477 31.0312 0.00937077C31.0256 0.00937077 31.02 0.0159333 31.0144 0.0178083L31.0237 0.00562077C25.3641 3.32062 23.4441 9.45281 23.2678 12.5212C23.5303 12.5034 23.7919 12.4809 24.0591 12.4809C28.2825 12.4809 31.9612 14.8041 33.9309 18.2456C32.7281 17.4019 30.5737 16.5656 28.4991 16.9266C36.6028 20.9784 34.4269 34.9322 23.1975 34.4053C22.1977 34.3652 21.2096 34.1756 20.2659 33.8428C20.0456 33.7603 19.8244 33.6694 19.6041 33.5719C19.4766 33.5138 19.35 33.4556 19.2291 33.3909L19.2441 33.4003C19.1353 33.3478 19.0256 33.2934 18.9169 33.2372C19.0219 33.2869 19.1212 33.3422 19.2291 33.3909C16.4719 31.9688 14.2003 29.2781 13.9162 26.0138C13.9162 26.0138 14.9559 22.1381 21.3628 22.1381C22.0556 22.1381 24.0356 20.205 24.0722 19.6444C24.0637 19.4616 20.1431 17.9016 18.6141 16.395C17.7975 15.5906 17.4094 15.2025 17.0653 14.9109C16.8791 14.7535 16.6845 14.6064 16.4822 14.4703C15.9689 12.6734 15.9472 10.7716 16.4194 8.96344C14.1047 10.0181 12.3047 11.6822 10.9959 13.155H10.9856C10.0922 12.0234 10.155 8.29125 10.2056 7.51218C10.1953 7.46343 9.54 7.8525 9.45562 7.91156C8.66725 8.47398 7.9303 9.1052 7.25344 9.79781C6.48319 10.5787 5.7795 11.4226 5.14969 12.3206C3.70069 14.3741 2.67307 16.6945 2.12625 19.1475C2.11594 19.1963 2.10656 19.2469 2.09625 19.2966C2.05406 19.4944 1.86281 20.5013 1.83656 20.7169C1.83656 20.7338 1.83656 20.7009 1.83656 20.7169C1.66102 21.7572 1.54863 22.8073 1.5 23.8613V23.9766C1.5 36.4191 11.5875 46.5066 24.03 46.5066C35.1741 46.5066 44.4262 38.4159 46.2384 27.7884C46.2759 27.5006 46.3069 27.21 46.3406 26.9194C46.7887 23.055 46.2909 18.9938 44.8791 15.5981ZM42.6441 16.755V16.7794V16.755Z" fill="url(#paint11_linear_85_4002)"/>
<defs>
<linearGradient id="paint0_linear_85_4002" x1="41.8969" y1="7.20469" x2="4.49436" y2="43.2909" gradientUnits="userSpaceOnUse">
<stop offset="0.05" stop-color="#FFF44F"/>
<stop offset="0.11" stop-color="#FFE847"/>
<stop offset="0.22" stop-color="#FFC830"/>
<stop offset="0.37" stop-color="#FF980E"/>
<stop offset="0.4" stop-color="#FF8B16"/>
<stop offset="0.46" stop-color="#FF672A"/>
<stop offset="0.53" stop-color="#FF3647"/>
<stop offset="0.7" stop-color="#E31587"/>
</linearGradient>
<radialGradient id="paint1_radial_85_4002" cx="0" cy="0" r="1" gradientUnits="userSpaceOnUse" gradientTransform="translate(40.1681 5.16187) scale(46.9697)">
<stop offset="0.13" stop-color="#FFBD4F"/>
<stop offset="0.19" stop-color="#FFAC31"/>
<stop offset="0.25" stop-color="#FF9D17"/>
<stop offset="0.28" stop-color="#FF980E"/>
<stop offset="0.4" stop-color="#FF563B"/>
<stop offset="0.47" stop-color="#FF3750"/>
<stop offset="0.71" stop-color="#F5156C"/>
<stop offset="0.78" stop-color="#EB0878"/>
<stop offset="0.86" stop-color="#E50080"/>
</radialGradient>
<radialGradient id="paint2_radial_85_4002" cx="0" cy="0" r="1" gradientUnits="userSpaceOnUse" gradientTransform="translate(23.0053 24.3638) scale(46.9697)">
<stop offset="0.3" stop-color="#960E18"/>
<stop offset="0.35" stop-color="#B11927" stop-opacity="0.74"/>
<stop offset="0.43" stop-color="#DB293D" stop-opacity="0.34"/>
<stop offset="0.5" stop-color="#F5334B" stop-opacity="0.09"/>
<stop offset="0.53" stop-color="#FF3750" stop-opacity="0"/>
</radialGradient>
<radialGradient id="paint3_radial_85_4002" cx="0" cy="0" r="1" gradientUnits="userSpaceOnUse" gradientTransform="translate(28.6688 -5.49749) scale(34.0275)">
<stop offset="0.13" stop-color="#FFF44F"/>
<stop offset="0.25" stop-color="#FFDC3E"/>
<stop offset="0.51" stop-color="#FF9D12"/>
<stop offset="0.53" stop-color="#FF980E"/>
</radialGradient>
<radialGradient id="paint4_radial_85_4002" cx="0" cy="0" r="1" gradientUnits="userSpaceOnUse" gradientTransform="translate(17.8106 36.6328) scale(22.3641)">
<stop offset="0.35" stop-color="#3A8EE6"/>
<stop offset="0.47" stop-color="#5C79F0"/>
<stop offset="0.67" stop-color="#9059FF"/>
<stop offset="1" stop-color="#C139E6"/>
</radialGradient>
<radialGradient id="paint5_radial_85_4002" cx="0" cy="0" r="1" gradientUnits="userSpaceOnUse" gradientTransform="translate(23.6799 18.7815) rotate(-13.8972) scale(11.8486 13.9193)">
<stop offset="0.21" stop-color="#9059FF" stop-opacity="0"/>
<stop offset="0.28" stop-color="#8C4FF3" stop-opacity="0.06"/>
<stop offset="0.75" stop-color="#7716A8" stop-opacity="0.45"/>
<stop offset="0.97" stop-color="#6E008B" stop-opacity="0.6"/>
</radialGradient>
<radialGradient id="paint6_radial_85_4002" cx="0" cy="0" r="1" gradientUnits="userSpaceOnUse" gradientTransform="translate(22.4119 3.24) scale(16.0894)">
<stop stop-color="#FFE226"/>
<stop offset="0.12" stop-color="#FFDB27"/>
<stop offset="0.3" stop-color="#FFC82A"/>
<stop offset="0.5" stop-color="#FFA930"/>
<stop offset="0.73" stop-color="#FF7E37"/>
<stop offset="0.79" stop-color="#FF7139"/>
</radialGradient>
<radialGradient id="paint7_radial_85_4002" cx="0" cy="0" r="1" gradientUnits="userSpaceOnUse" gradientTransform="translate(35.0587 -6.96469) scale(68.6447)">
<stop offset="0.11" stop-color="#FFF44F"/>
<stop offset="0.46" stop-color="#FF980E"/>
<stop offset="0.62" stop-color="#FF5634"/>
<stop offset="0.72" stop-color="#FF3647"/>
<stop offset="0.9" stop-color="#E31587"/>
</radialGradient>
<radialGradient id="paint8_radial_85_4002" cx="0" cy="0" r="1" gradientUnits="userSpaceOnUse" gradientTransform="translate(28.4234 0.535216) rotate(84.2321) scale(50.0352 32.8733)">
<stop stop-color="#FFF44F"/>
<stop offset="0.06" stop-color="#FFE847"/>
<stop offset="0.17" stop-color="#FFC830"/>
<stop offset="0.3" stop-color="#FF980E"/>
<stop offset="0.36" stop-color="#FF8B16"/>
<stop offset="0.45" stop-color="#FF672A"/>
<stop offset="0.57" stop-color="#FF3647"/>
<stop offset="0.74" stop-color="#E31587"/>
</radialGradient>
<radialGradient id="paint9_radial_85_4002" cx="0" cy="0" r="1" gradientUnits="userSpaceOnUse" gradientTransform="translate(22.0331 9.19876) scale(42.855)">
<stop offset="0.14" stop-color="#FFF44F"/>
<stop offset="0.48" stop-color="#FF980E"/>
<stop offset="0.59" stop-color="#FF5634"/>
<stop offset="0.66" stop-color="#FF3647"/>
<stop offset="0.9" stop-color="#E31587"/>
</radialGradient>
<radialGradient id="paint10_radial_85_4002" cx="0" cy="0" r="1" gradientUnits="userSpaceOnUse" gradientTransform="translate(33.3459 11.7075) scale(46.905)">
<stop offset="0.09" stop-color="#FFF44F"/>
<stop offset="0.23" stop-color="#FFE141"/>
<stop offset="0.51" stop-color="#FFAF1E"/>
<stop offset="0.63" stop-color="#FF980E"/>
</radialGradient>
<linearGradient id="paint11_linear_85_4002" x1="41.4469" y1="7.01156" x2="9.62249" y2="38.8369" gradientUnits="userSpaceOnUse">
<stop offset="0.17" stop-color="#FFF44F" stop-opacity="0.8"/>
<stop offset="0.27" stop-color="#FFF44F" stop-opacity="0.63"/>
<stop offset="0.49" stop-color="#FFF44F" stop-opacity="0.22"/>
<stop offset="0.6" stop-color="#FFF44F" stop-opacity="0"/>
</linearGradient>
</defs>
</svg>
